<?xml version="1.0" encoding="UTF-8" standalone="no"?>
<svg
   xmlns:dc="http://purl.org/dc/elements/1.1/"
   xmlns:cc="http://creativecommons.org/ns#"
   xmlns:rdf="http://www.w3.org/1999/02/22-rdf-syntax-ns#"
   xmlns:svg="http://www.w3.org/2000/svg"
   xmlns="http://www.w3.org/2000/svg"
   xmlns:sodipodi="http://sodipodi.sourceforge.net/DTD/sodipodi-0.dtd"
   xmlns:inkscape="http://www.inkscape.org/namespaces/inkscape"
   width="789"
   height="789"
   viewBox="0 0 789 789"
   version="1.1"
   id="svg7"
   sodipodi:docname="LOGO.svg"
   inkscape:version="0.92.4 (5da689c313, 2019-01-14)">
  <metadata
     id="metadata13">
    <rdf:RDF>
      <cc:Work
         rdf:about="">
        <dc:format>image/svg+xml</dc:format>
        <dc:type
           rdf:resource="http://purl.org/dc/dcmitype/StillImage" />
      </cc:Work>
    </rdf:RDF>
  </metadata>
  <defs
     id="defs11" />
  <sodipodi:namedview
     pagecolor="#ffffff"
     bordercolor="#666666"
     borderopacity="1"
     objecttolerance="10"
     gridtolerance="10"
     guidetolerance="10"
     inkscape:pageopacity="0"
     inkscape:pageshadow="2"
     inkscape:window-width="2256"
     inkscape:window-height="1425"
     id="namedview9"
     showgrid="false"
     inkscape:zoom="1.1964512"
     inkscape:cx="282.38661"
     inkscape:cy="377.84091"
     inkscape:window-x="-9"
     inkscape:window-y="-9"
     inkscape:window-maximized="1"
     inkscape:current-layer="LOGO" />
  <g
     id="LOGO"
     transform="translate(-643 -114)">
    <circle
       id="Ellipse_1"
       data-name="Ellipse 1"
       cx="394.5"
       cy="394.5"
       r="394.5"
       transform="translate(643 114)"
       inkscape:export-xdpi="500"
       inkscape:export-ydpi="500" />
    <g
       id="Group_1"
       data-name="Group 1">
      <path
         id="Polygon_1"
         data-name="Polygon 1"
         d="M307.417,229.613c9.365-48.661,79.013-48.661,88.378,0l23.186,120.479a45,45,0,0,0,14.73,25.513l92.745,80.319c37.459,32.441,2.635,92.758-44.189,76.538L366.336,492.3a45,45,0,0,0-29.459,0L220.946,532.46c-46.824,16.22-81.648-44.1-44.189-76.538L269.5,375.6a45,45,0,0,0,14.73-25.513Z"
         transform="translate(1220.402 -24.25) rotate(60)"
         fill="#fff" />
      <path
         id="Polygon_2"
         data-name="Polygon 2"
         d="M60.187,29.935a20,20,0,0,1,34.626,0l42.829,74.052A20,20,0,0,1,120.329,134H34.671a20,20,0,0,1-17.313-30.013Z"
         transform="translate(837.587 698.146) rotate(-125.025)"
         fill="#ff872a"
         style="fill:#2ab1ff;fill-opacity:1" />
    </g>
  </g>
</svg>
